<?xml version="1.0" encoding="iso-8859-1"?>
<!-- Uploaded to: SVG Repo, www.svgrepo.com, Generator: SVG Repo Mixer Tools -->
<svg fill="#000000" height="800px" width="800px" version="1.1" id="Layer_1" xmlns="http://www.w3.org/2000/svg" xmlns:xlink="http://www.w3.org/1999/xlink" 
	 viewBox="0 0 512 512" xml:space="preserve">
<g>
	<g>
		<path d="M512,259.122l-112.39-24.976l-62.439-87.415h-74.927v-37.463h-99.902v37.463H87.415l-37.463,87.415H0v37.463h37.463
			v37.463H0v37.463h37.463c0,31.037,25.159,56.195,56.195,56.195c31.036,0,56.195-25.158,56.195-56.195h99.902v-37.463h-37.463
			V271.61h37.463v37.463h37.463V271.61h37.463v37.463h-37.463v37.463h74.927c0,31.037,25.159,56.195,56.195,56.195
			c31.036,0,56.195-25.158,56.195-56.195H512v-37.463h-24.976l-12.488-37.463H512V259.122z M93.659,374.634
			c-15.519,0-28.098-12.579-28.098-28.098c0-15.519,12.579-28.098,28.098-28.098c15.519,0,28.098,12.579,28.098,28.098
			C121.756,362.055,109.177,374.634,93.659,374.634z M193.561,234.146H90.71l21.408-49.951h81.443V234.146z M231.024,234.146
			v-49.951h86.868l35.679,49.951H231.024z M418.341,374.634c-15.519,0-28.098-12.579-28.098-28.098
			c0-15.519,12.579-28.098,28.098-28.098c15.519,0,28.098,12.579,28.098,28.098C446.439,362.055,433.86,374.634,418.341,374.634z"/>
	</g>
</g>
</svg>